<?xml version="1.0" encoding="UTF-8" standalone="no"?>
<svg
   width="123.26709"
   height="30.812"
   viewBox="0 0 123.26709 30.812"
   fill="none"
   version="1.1"
   id="svg7"
   sodipodi:docname="switch_vector.svg"
   xmlns:inkscape="http://www.inkscape.org/namespaces/inkscape"
   xmlns:sodipodi="http://sodipodi.sourceforge.net/DTD/sodipodi-0.dtd"
   xmlns="http://www.w3.org/2000/svg"
   xmlns:svg="http://www.w3.org/2000/svg">
  <defs
     id="defs7" />
  <sodipodi:namedview
     id="namedview7"
     pagecolor="#ffffff"
     bordercolor="#000000"
     borderopacity="0.25"
     inkscape:showpageshadow="2"
     inkscape:pageopacity="0.0"
     inkscape:pagecheckerboard="0"
     inkscape:deskcolor="#d1d1d1" />
  <g
     fill="#8ea3ba"
     id="g5"
     transform="translate(-4.8119998,-0.75)">
    <path
       d="M 98.25,1.188 97.875,1.625 97.75,2.312 V 18 l 0.188,0.75 0.5,0.312 L 98.938,19 99.5,18.25 V 11.5 l 0.5,-0.812 0.5,-0.188 7.375,-0.062 0.687,0.187 0.25,0.937 0.063,7 0.563,0.5 1.25,-0.312 L 111,17.938 V 2.375 l -0.188,-0.687 -0.75,-0.563 h -0.687 l -0.5,0.563 v 6.5 L 108.5,8.75 100.625,8.812 99.875,8.688 99.438,8.312 99.562,2.438 99,1.25 Z"
       id="path1" />
    <path
       d="m 22.438,1.312 -0.313,1.126 0.5,1.062 0.25,2 0.75,1.562 0.187,1.813 0.813,1.875 0.313,2.312 0.75,1.438 0.124,1.75 1.126,2.625 0.312,0.25 L 28,19 28.938,17.375 29.25,15.25 30,13.812 30.312,11.5 31.062,10 31.312,7.938 32,6.25 32.25,4.625 32.562,4.438 33.062,7 l 0.626,1.25 0.187,1.938 0.687,1.124 0.313,2.25 0.813,1.688 0.312,2.062 0.875,1.688 0.937,0.062 1.25,-2.75 0.313,-2.25 L 40,13.125 40.312,10.75 41.062,9.125 41.312,6.875 42,5.688 42.312,3.5 l 0.5,-1 -0.124,-1 -0.938,-0.312 -0.625,0.25 -0.25,0.374 -0.375,2.063 -0.562,1 -0.313,2.313 -0.75,1.624 -0.313,2.438 -0.687,1.5 -0.187,1.938 -0.25,0.25 -1.126,-2.876 -0.25,-2.124 -0.75,-1.5 -0.25,-2.063 -0.75,-1.313 -0.25,-1.937 -1.124,-2 L 32.25,1 l -0.312,0.188 -1.063,1.5 -0.187,1.75 -0.75,1.437 -0.313,2.313 -0.75,1.562 -0.313,2.188 L 27.5,14.75 27.188,14.188 26.875,11.875 26.25,10.438 26.062,8.625 25.25,6.75 25,4.625 24.312,3.438 24.062,1.688 23.438,1.125 Z"
       id="path2" />
    <path
       d="M 59.25,0.938 58.625,1.625 V 2.312 L 59,2.875 59.5,3.062 63.312,2.938 63.938,3.5 v 14.75 l 0.624,0.688 h 0.813 l 0.563,-0.5 0.124,-1.063 L 66,3.5 66.625,2.938 70.688,3 71.25,2.5 V 1.438 L 70.438,0.875 Z"
       id="path3" />
    <path
       d="M 83.75,0.875 82.625,1.562 81.562,1.812 80,3 78.938,4.25 78.5,5.375 l -0.625,0.813 -0.5,3.5 v 1.687 l 0.375,1.187 0.125,1.626 1.875,2.874 1,0.938 1.188,0.438 0.75,0.624 1.374,0.188 5.313,-0.188 0.563,-0.562 v -0.812 l -0.376,-0.5 -0.437,-0.063 -1.687,0.563 H 84.562 L 81.75,16.5 80.438,15 l -0.376,-1.5 -0.624,-1.188 -0.25,-2.687 1.062,-4 2.25,-2.313 3.062,-0.812 1.5,0.125 2.188,0.625 1,-0.125 0.5,-0.5 -0.438,-0.813 -1.937,-0.937 z"
       id="path4" />
    <path
       d="M 13.375,0.938 11.875,0.75 8.688,0.875 8,1.438 6.75,1.875 5.812,2.812 l -0.25,0.75 -0.687,0.75 -0.063,2.376 1,1.75 2.063,1.624 4.125,1.438 1.5,1.25 0.312,0.812 V 15.25 L 13.5,16.062 11.125,17.625 7.875,17.688 6.688,17.438 6,16.875 5.062,16.938 4.812,18.125 5,18.625 5.562,19.062 7.375,19.25 12.5,19.062 14.062,18.125 15,17.188 15.938,15.375 16,13.438 15.062,11.688 13,9.938 11.5,9.562 10.438,8.812 8.938,8.5 8.312,7.875 7.5,7.562 7,6.25 v -1.5 l 0.438,-1 2.25,-1.188 1.75,-0.062 1.124,0.562 2.376,0.063 0.25,-0.375 -0.126,-0.875 z"
       id="path5" />
    <path
       style="fill:#8ea3ba;fill-opacity:1;stroke:#8ea3ba;stroke-width:1.912;stroke-linecap:round;stroke-linejoin:round;stroke-dasharray:none;stroke-opacity:1"
       d="m 114.51882,10.755905 h 12.60427"
       id="path8" />
    <path
       style="fill:#8ea3ba;fill-opacity:1;stroke:#8ea3ba;stroke-width:1.912;stroke-linecap:round;stroke-linejoin:round;stroke-dasharray:none;stroke-opacity:1"
       d="M 120.82095,4.4537698 V 17.05804"
       id="path8-4" />
  </g>
  <g
     fill="#ffffff"
     id="g7"
     transform="translate(-4.8119998,-0.75)">
    <path
       d="M 56.562,8.188 55,8.875 l -0.125,1 0.937,1 2.688,1.875 2.062,3.125 L 61,18.25 v 3 l -0.438,2.062 -0.5,0.563 L 59.5,25.188 57,27.5 55.688,28 l -0.563,0.5 -2,0.312 -2.625,-0.062 -3,-1.125 -1.688,-1.375 -1.437,-1.812 -1.063,-2.5 -0.187,-2.876 0.313,-2.187 0.5,-0.687 0.5,-1.563 0.5,-0.437 0.374,-0.813 L 49.25,10.562 49.438,9.5 48.875,8.688 47.875,8.5 46.562,8.75 44.625,10 42,13.125 l -1.062,2.125 -0.5,2.5 -0.063,3.625 0.625,2.813 1.875,3 1.063,1.124 1.937,1.626 1.375,0.562 0.688,0.562 2.687,0.5 h 2.625 l 3.125,-0.5 0.75,-0.562 1.313,-0.5 2.437,-2.062 1.187,-1.438 1.063,-1.938 1,-3.374 -0.063,-3.626 -0.937,-3 -0.75,-1 L 62,12.5 l -1.438,-1.562 -2.437,-2 z"
       id="path6" />
    <path
       d="M 50.75,1.25 50.125,1.625 49.875,2.5 v 14.875 l 0.187,1.187 0.5,0.376 h 0.813 l 0.563,-0.5 0.124,-1.063 V 2.5 l -0.5,-1.125 z"
       id="path7" />
  </g>
</svg>
