<svg xmlns="http://www.w3.org/2000/svg" viewBox="0 0 1138 643" role="img" aria-label="SWITCH+ 2026 MICCAI workshop logo">
  <title>SWITCH+ logo</title>
  <g>
    <path d="M 696 552 L 692 553 Z M 701 550 L 698 551 Z M 716 538 L 708 546 L 703 549 L 708 546 Z M 722 527 L 719 533 Z M 1060 503 L 1058 505 L 1058 540 L 1057 541 L 1023 541 L 1021 543 L 1021 560 L 1023 561 L 1022 562 L 1024 561 L 1026 562 L 1056 562 L 1057 561 L 1058 562 L 1058 597 L 1060 599 L 1078 599 L 1079 598 L 1078 597 L 1080 596 L 1080 563 L 1081 562 L 1115 562 L 1117 560 L 1117 543 L 1115 541 L 1080 541 L 1079 540 L 1080 539 L 1080 506 L 1078 503 Z M 699 475 L 703 477 Z M 797 471 L 783 475 L 769 482 L 753 497 L 754 498 L 752 499 L 749 503 L 743 515 L 744 517 L 742 518 L 741 521 L 742 523 L 740 524 L 741 527 L 739 529 L 739 534 L 738 535 L 738 542 L 739 543 L 738 545 L 738 548 L 739 549 L 738 550 L 738 558 L 740 560 L 739 561 L 740 568 L 743 577 L 745 578 L 744 579 L 747 585 L 749 586 L 748 587 L 750 590 L 752 591 L 751 592 L 755 595 L 755 597 L 768 609 L 769 608 L 770 610 L 775 613 L 776 612 L 777 614 L 778 613 L 779 615 L 790 619 L 793 619 L 794 620 L 797 620 L 798 619 L 801 621 L 822 621 L 824 619 L 827 620 L 828 619 L 836 618 L 837 616 L 839 617 L 844 614 L 848 613 L 856 608 L 860 604 L 858 598 L 855 596 L 856 595 L 849 583 L 846 582 L 840 587 L 835 590 L 831 591 L 830 593 L 828 592 L 823 594 L 805 594 L 804 595 L 803 593 L 797 592 L 790 588 L 789 589 L 788 587 L 780 580 L 777 576 L 773 567 L 771 566 L 772 564 L 769 554 L 769 538 L 768 537 L 770 536 L 770 532 L 772 525 L 777 515 L 780 512 L 779 511 L 791 502 L 797 499 L 799 499 L 800 497 L 801 498 L 804 498 L 805 497 L 823 497 L 828 499 L 831 498 L 832 500 L 840 504 L 841 503 L 844 507 L 847 508 L 853 499 L 859 486 L 849 479 L 848 480 L 847 478 L 846 479 L 845 477 L 844 478 L 843 476 L 827 471 L 820 471 L 819 470 Z M 784 506 L 785 505 L 786 506 L 785 507 Z M 788 503 L 789 502 L 790 503 L 789 504 Z M 851 499 L 852 498 L 853 499 L 852 500 Z M 827 498 L 828 497 L 829 498 L 828 499 Z M 803 497 L 804 496 L 805 497 L 804 498 Z M 461 468 L 459 470 L 459 617 L 460 618 L 491 618 L 492 617 L 492 469 L 491 468 Z M 459 617 L 460 616 L 461 617 L 460 618 Z M 168 469 L 171 479 L 173 480 L 172 482 L 174 485 L 175 490 L 177 491 L 176 493 L 178 494 L 177 495 L 179 501 L 181 502 L 180 504 L 182 507 L 183 512 L 185 513 L 184 515 L 190 529 L 191 534 L 193 535 L 192 537 L 194 538 L 193 539 L 195 545 L 197 546 L 196 548 L 198 551 L 199 556 L 201 557 L 200 558 L 201 562 L 203 565 L 206 575 L 208 576 L 207 577 L 209 583 L 211 584 L 210 585 L 211 589 L 213 592 L 215 599 L 217 600 L 216 602 L 219 608 L 220 613 L 223 615 L 222 616 L 223 617 L 224 616 L 225 618 L 227 619 L 252 619 L 255 618 L 258 615 L 260 611 L 259 609 L 261 608 L 264 598 L 266 595 L 268 589 L 267 588 L 269 587 L 269 585 L 271 582 L 273 576 L 272 575 L 274 574 L 274 572 L 276 569 L 275 567 L 277 566 L 278 561 L 280 558 L 282 552 L 281 551 L 283 550 L 288 534 L 290 531 L 294 517 L 296 514 L 295 512 L 298 510 L 301 516 L 301 518 L 303 519 L 302 521 L 305 527 L 307 535 L 309 538 L 311 546 L 313 547 L 312 549 L 314 552 L 315 557 L 317 558 L 316 560 L 320 568 L 327 589 L 329 590 L 328 591 L 330 597 L 332 598 L 331 599 L 335 608 L 336 613 L 338 616 L 341 618 L 342 617 L 343 619 L 368 619 L 370 618 L 371 616 L 372 617 L 375 613 L 375 611 L 385 588 L 386 583 L 390 575 L 392 567 L 396 559 L 397 554 L 399 551 L 400 546 L 404 538 L 405 533 L 407 530 L 408 525 L 410 522 L 411 517 L 413 514 L 414 509 L 422 490 L 424 482 L 427 476 L 426 474 L 428 473 L 429 471 L 428 468 L 397 468 L 396 469 L 392 480 L 393 482 L 391 483 L 392 485 L 390 486 L 391 488 L 389 489 L 390 491 L 388 492 L 389 494 L 387 495 L 385 503 L 381 512 L 382 514 L 380 515 L 381 517 L 379 518 L 375 532 L 373 535 L 374 537 L 372 538 L 373 540 L 371 541 L 365 559 L 366 560 L 364 561 L 361 572 L 355 586 L 348 567 L 346 566 L 347 565 L 346 561 L 344 558 L 344 556 L 342 555 L 343 553 L 341 547 L 339 544 L 339 542 L 337 541 L 338 540 L 337 536 L 335 533 L 333 525 L 331 522 L 329 514 L 327 511 L 319 487 L 317 486 L 318 484 L 316 481 L 315 476 L 310 469 L 308 468 L 288 468 L 287 470 L 286 469 L 282 473 L 276 491 L 274 494 L 272 502 L 270 505 L 268 513 L 266 516 L 264 524 L 262 527 L 260 535 L 258 538 L 256 544 L 257 546 L 255 547 L 253 554 L 251 557 L 249 563 L 250 565 L 248 566 L 246 573 L 244 576 L 242 582 L 243 584 L 241 585 L 239 583 L 239 581 L 237 580 L 238 578 L 236 577 L 237 575 L 235 574 L 236 572 L 235 569 L 233 568 L 234 566 L 232 565 L 233 563 L 231 562 L 232 560 L 206 483 L 204 482 L 205 480 L 201 469 L 200 468 L 169 468 Z M 379 598 L 380 597 L 381 598 L 380 599 Z M 381 593 L 382 592 L 383 593 L 382 594 Z M 383 588 L 384 587 L 385 588 L 384 589 Z M 244 576 L 245 575 L 246 576 L 245 577 Z M 251 557 L 252 556 L 253 557 L 252 558 Z M 397 551 L 398 550 L 399 551 L 398 552 Z M 402 538 L 403 537 L 404 538 L 403 539 Z M 405 530 L 406 529 L 407 530 L 406 531 Z M 408 522 L 409 521 L 410 522 L 409 523 Z M 266 516 L 267 515 L 268 516 L 267 517 Z M 411 514 L 412 513 L 413 514 L 412 515 Z M 296 509 L 297 508 L 298 509 L 297 510 Z M 213 509 L 214 508 L 215 509 L 214 510 Z M 269 508 L 270 507 L 271 508 L 270 509 Z M 270 505 L 271 504 L 272 505 L 271 506 Z M 274 494 L 275 493 L 276 494 L 275 495 Z M 208 494 L 209 493 L 210 494 L 209 495 Z M 207 491 L 208 490 L 209 491 L 208 492 Z M 420 490 L 421 489 L 422 490 L 421 491 Z M 206 488 L 207 487 L 208 488 L 207 489 Z M 205 485 L 206 484 L 207 485 L 206 486 Z M 279 480 L 280 479 L 281 480 L 280 481 Z M 71 464 L 70 465 L 67 465 L 65 467 L 63 466 L 57 468 L 56 470 L 55 469 L 48 472 L 42 476 L 38 481 L 37 480 L 31 487 L 27 495 L 28 498 L 26 499 L 26 502 L 25 503 L 25 518 L 28 528 L 31 533 L 38 540 L 48 546 L 49 545 L 50 547 L 52 548 L 54 547 L 55 549 L 61 551 L 64 551 L 73 554 L 76 553 L 78 555 L 81 554 L 82 556 L 91 557 L 107 562 L 110 564 L 116 571 L 116 582 L 108 591 L 102 594 L 99 594 L 98 596 L 97 595 L 93 595 L 91 597 L 90 596 L 79 596 L 78 597 L 76 595 L 64 594 L 59 592 L 56 593 L 55 591 L 50 590 L 45 587 L 43 588 L 42 586 L 41 587 L 40 585 L 35 582 L 34 583 L 33 581 L 31 581 L 24 594 L 25 596 L 23 597 L 24 598 L 22 599 L 20 605 L 25 609 L 29 611 L 30 610 L 31 612 L 36 614 L 37 613 L 38 615 L 44 617 L 46 616 L 47 618 L 50 618 L 51 619 L 54 618 L 56 620 L 59 619 L 61 621 L 65 621 L 66 620 L 68 622 L 79 622 L 80 621 L 98 622 L 100 620 L 101 621 L 104 621 L 106 619 L 107 620 L 113 619 L 114 617 L 115 618 L 121 616 L 122 614 L 123 615 L 130 611 L 132 608 L 134 608 L 140 602 L 144 596 L 148 584 L 148 567 L 146 560 L 143 554 L 139 551 L 140 550 L 134 544 L 120 536 L 103 531 L 100 531 L 99 532 L 98 530 L 95 530 L 94 531 L 93 529 L 76 526 L 70 524 L 58 517 L 59 516 L 57 513 L 57 505 L 60 500 L 59 499 L 66 494 L 73 491 L 86 490 L 84 489 L 85 488 L 92 488 L 93 489 L 91 490 L 101 490 L 102 491 L 106 491 L 107 490 L 108 492 L 111 491 L 112 493 L 122 496 L 135 503 L 138 499 L 139 496 L 138 495 L 140 494 L 146 482 L 146 480 L 143 477 L 129 470 L 128 471 L 127 469 L 118 467 L 114 465 L 110 465 L 109 464 L 105 464 L 104 465 L 102 463 L 78 463 L 77 464 Z M 111 588 L 112 587 L 113 588 L 112 589 Z M 129 542 L 130 541 L 131 542 L 130 543 Z M 119 537 L 120 536 L 121 537 L 120 538 Z M 31 533 L 32 532 L 33 533 L 32 534 Z M 29 530 L 30 529 L 31 530 L 30 531 Z M 83 528 L 84 527 L 85 528 L 84 529 Z M 28 528 L 29 527 L 30 528 L 29 529 Z M 61 520 L 62 519 L 63 520 L 62 521 Z M 129 500 L 130 499 L 131 500 L 130 501 Z M 27 495 L 28 494 L 29 495 L 28 496 Z M 101 490 L 102 489 L 103 490 L 102 491 Z M 76 490 L 77 489 L 78 490 L 77 491 Z M 31 487 L 32 486 L 33 487 L 32 488 Z M 35 482 L 36 481 L 37 482 L 36 483 Z M 36 481 L 37 480 L 38 481 L 37 482 Z M 881 419 L 880 420 L 880 617 L 881 618 L 909 618 L 910 617 L 910 536 L 909 535 L 911 531 L 912 522 L 915 516 L 914 515 L 917 513 L 923 505 L 932 500 L 933 498 L 934 499 L 942 498 L 943 496 L 948 498 L 956 499 L 963 503 L 967 507 L 971 514 L 973 521 L 973 525 L 975 528 L 974 529 L 974 616 L 975 618 L 1004 618 L 1005 616 L 1005 529 L 1004 528 L 1004 518 L 1003 517 L 1001 505 L 1000 503 L 998 502 L 999 500 L 994 491 L 990 488 L 991 487 L 981 478 L 980 479 L 979 477 L 976 475 L 974 475 L 968 472 L 965 473 L 963 471 L 955 471 L 954 472 L 952 471 L 945 471 L 943 473 L 940 472 L 931 475 L 926 478 L 925 480 L 924 479 L 913 489 L 914 490 L 910 492 L 909 491 L 910 489 L 910 420 L 909 419 Z M 1003 529 L 1004 528 L 1005 529 L 1004 530 Z M 1002 518 L 1003 517 L 1004 518 L 1003 519 Z M 999 505 L 1000 504 L 1001 505 L 1000 506 Z M 961 502 L 962 501 L 963 502 L 962 503 Z M 947 497 L 948 496 L 949 497 L 948 498 Z M 910 493 L 911 492 L 912 493 L 911 494 Z M 635 410 L 635 470 L 636 471 L 687 471 L 636 471 L 635 470 Z M 472 395 L 469 396 L 468 398 L 467 397 L 466 399 L 465 398 L 459 404 L 456 411 L 456 420 L 460 428 L 468 434 L 470 433 L 471 435 L 475 435 L 476 434 L 482 435 L 483 433 L 484 434 L 487 433 L 491 430 L 494 426 L 497 419 L 497 411 L 495 409 L 496 408 L 494 404 L 491 402 L 488 398 L 481 395 Z M 460 428 L 461 427 L 462 428 L 461 429 Z M 640 389 L 638 394 L 637 401 L 637 398 Z M 655 365 L 650 370 L 646 376 L 641 387 L 646 376 L 650 370 Z M 745 357 L 746 358 L 750 358 L 746 358 Z M 753 355 L 752 357 Z M 666 355 L 657 363 Z M 671 352 L 668 354 Z M 730 349 L 738 353 Z M 680 348 L 677 349 Z M 721 346 L 728 348 Z M 632 344 L 630 354 Z M 599 339 L 600 342 Z M 635 335 L 633 342 Z M 721 334 L 721 335 L 725 335 L 742 342 L 750 347 L 753 351 L 750 347 L 744 343 L 731 337 Z M 648 333 L 647 336 Z M 596 332 L 598 337 Z M 789 330 L 789 331 L 792 333 L 791 333 Z M 591 323 L 593 326 Z M 656 317 L 649 331 Z M 732 311 L 724 319 L 715 326 L 702 333 L 691 333 L 690 334 L 682 335 L 664 343 L 654 350 L 641 364 L 640 363 L 640 359 L 641 358 L 644 344 L 641 358 L 640 359 L 639 367 L 643 361 L 654 350 L 664 343 L 682 335 L 690 334 L 691 333 L 702 333 L 715 326 L 724 319 Z M 639 364 L 640 363 L 641 364 L 640 365 Z M 580 309 L 588 318 Z M 742 307 L 744 310 L 743 315 L 731 327 L 743 315 L 744 310 Z M 740 306 L 736 306 L 733 309 L 736 306 Z M 828 304 L 832 304 L 839 308 L 842 311 L 836 306 L 832 304 Z M 845 299 L 850 304 L 850 309 L 847 312 L 844 312 L 847 312 L 850 309 L 850 304 L 849 302 Z M 805 298 L 815 301 Z M 800 296 L 802 302 L 802 321 L 801 322 L 800 329 L 799 331 L 796 333 L 800 330 L 801 322 L 802 321 L 802 302 L 801 301 L 801 298 L 803 297 Z M 800 297 L 801 296 L 802 297 L 801 298 Z M 564 295 L 579 307 Z M 834 294 L 836 294 L 843 298 L 836 294 Z M 517 292 L 505 301 Z M 818 291 L 825 292 Z M 557 291 L 562 294 Z M 812 289 L 816 290 Z M 786 289 L 787 292 Z M 807 287 L 810 288 Z M 521 290 L 528 287 L 533 287 L 534 286 L 548 287 L 553 289 L 548 287 L 534 286 L 533 287 L 528 287 Z M 509 284 L 498 294 L 498 298 L 501 301 L 503 301 L 501 301 L 498 298 L 498 294 Z M 798 282 L 801 284 Z M 562 281 L 565 283 Z M 557 279 L 560 280 Z M 523 278 L 518 279 L 511 283 L 518 279 Z M 547 274 L 555 278 Z M 784 269 L 791 277 L 796 281 L 794 280 Z M 533 267 L 543 272 Z M 436 274 L 439 276 L 442 276 L 446 273 L 460 268 L 470 267 L 471 266 L 490 266 L 491 267 L 498 267 L 499 268 L 511 270 L 524 275 L 525 277 L 527 277 L 522 274 L 511 270 L 499 268 L 498 267 L 491 267 L 490 266 L 471 266 L 470 267 L 460 268 L 446 273 L 442 276 L 439 276 Z M 438 265 L 435 268 L 435 272 L 435 268 Z M 526 264 L 529 265 Z M 445 262 L 440 264 Z M 785 287 L 773 274 L 757 265 L 743 261 L 722 261 L 721 262 L 717 262 L 711 264 L 700 270 L 684 282 L 667 300 L 657 315 L 667 300 L 683 283 L 700 270 L 711 264 L 717 262 L 721 262 L 722 261 L 743 261 L 757 265 L 773 274 Z M 450 260 L 447 261 Z M 699 258 L 696 260 Z M 704 255 L 701 257 Z M 472 252 L 475 253 Z M 463 247 L 466 249 Z M 721 245 L 718 247 Z M 726 242 L 723 244 Z M 731 239 L 728 241 Z M 786 232 L 775 233 L 758 238 L 747 243 L 745 245 L 736 249 L 736 250 L 742 250 L 738 250 L 737 249 L 758 238 L 775 233 Z M 788 231 L 804 231 L 805 232 L 814 233 L 820 236 L 822 236 L 830 241 L 842 253 L 847 253 L 850 250 L 850 245 L 836 232 L 850 245 L 850 250 L 847 253 L 842 253 L 830 241 L 817 234 L 810 232 L 805 232 L 804 231 Z M 435 228 L 432 232 L 434 237 L 445 248 L 456 256 L 459 257 L 450 252 L 434 237 L 432 232 Z M 841 223 L 832 228 L 830 228 L 831 229 Z M 758 220 L 745 232 Z M 849 206 L 853 209 L 853 214 L 851 216 L 853 214 L 853 209 Z M 847 206 L 845 206 L 836 214 L 829 217 L 836 214 L 845 206 Z M 771 198 L 770 201 Z M 706 195 L 702 200 Z M 711 187 L 709 190 Z M 791 185 L 785 192 L 782 202 L 775 216 L 770 223 L 772 223 L 771 222 L 782 202 L 785 192 Z M 688 178 L 693 188 Z M 804 177 L 801 179 Z M 716 176 L 715 179 Z M 685 173 L 687 176 Z M 802 165 L 799 168 L 793 171 L 799 168 Z M 597 165 L 598 168 Z M 676 163 L 680 165 L 676 163 L 673 164 L 670 168 L 670 171 L 678 182 L 684 194 L 687 204 L 688 218 L 689 219 L 689 228 L 688 229 L 687 243 L 682 260 L 674 276 L 657 294 L 648 307 L 639 324 L 636 333 L 639 324 L 648 307 L 657 294 L 676 273 L 682 260 L 685 251 L 685 248 L 687 244 L 688 229 L 689 228 L 689 218 L 688 217 L 687 204 L 684 194 L 678 182 L 670 171 L 671 166 Z M 715 162 L 718 165 L 718 170 L 718 165 L 715 162 L 710 162 L 707 166 L 706 172 L 703 179 L 695 191 L 694 190 L 694 191 L 696 190 L 703 179 L 708 164 L 710 162 Z M 813 156 L 808 158 L 806 161 L 810 157 L 813 156 L 818 160 L 818 164 L 809 174 L 818 164 L 818 160 Z M 592 155 L 596 163 Z M 443 156 L 439 160 L 439 164 L 450 176 L 453 178 L 454 177 L 455 179 L 464 183 L 480 184 L 485 196 L 490 203 L 497 210 L 500 212 L 501 211 L 503 214 L 515 219 L 519 219 L 520 220 L 537 220 L 538 218 L 541 219 L 542 218 L 547 218 L 552 216 L 555 218 L 560 218 L 569 221 L 574 224 L 575 223 L 577 226 L 578 225 L 582 230 L 590 236 L 589 237 L 595 244 L 599 251 L 600 255 L 602 256 L 601 257 L 602 258 L 602 261 L 604 262 L 603 264 L 605 266 L 604 267 L 604 270 L 606 272 L 605 273 L 605 321 L 604 322 L 591 304 L 576 290 L 581 294 L 596 310 L 606 326 L 606 359 L 605 360 L 605 469 L 606 470 L 605 471 L 576 471 L 575 470 L 575 419 L 543 419 L 542 420 L 542 476 L 537 479 L 535 482 L 534 481 L 523 493 L 520 499 L 521 500 L 519 501 L 520 503 L 518 504 L 517 519 L 518 520 L 518 525 L 520 531 L 524 538 L 527 540 L 527 542 L 531 546 L 539 551 L 540 550 L 542 553 L 542 573 L 544 577 L 543 578 L 544 585 L 547 593 L 549 594 L 548 595 L 549 597 L 552 599 L 552 601 L 559 608 L 572 615 L 579 617 L 582 617 L 583 616 L 585 618 L 591 618 L 592 617 L 593 618 L 634 618 L 635 617 L 635 590 L 634 591 L 633 589 L 595 589 L 588 587 L 585 585 L 584 586 L 577 576 L 576 568 L 575 567 L 575 556 L 576 555 L 684 555 L 629 555 L 628 554 L 628 550 L 629 549 L 640 549 L 650 546 L 662 537 L 669 525 L 669 522 L 670 521 L 670 505 L 666 495 L 656 484 L 647 479 L 639 478 L 638 477 L 630 477 L 628 472 L 624 472 L 623 471 L 623 404 L 623 470 L 622 471 L 617 471 L 616 470 L 618 469 L 618 275 L 617 276 L 616 275 L 617 273 L 617 268 L 618 267 L 618 232 L 618 267 L 617 268 L 615 266 L 612 253 L 605 240 L 605 237 L 604 236 L 605 235 L 604 236 L 599 229 L 583 215 L 582 216 L 581 214 L 578 212 L 565 207 L 563 208 L 561 206 L 558 206 L 557 207 L 552 205 L 550 206 L 542 206 L 536 208 L 520 208 L 519 207 L 517 208 L 506 201 L 505 202 L 504 200 L 498 195 L 498 193 L 495 189 L 492 180 L 500 176 L 508 167 L 511 161 L 510 160 L 512 159 L 511 157 L 513 155 L 513 152 L 509 147 L 503 148 L 500 153 L 501 156 L 499 157 L 498 160 L 490 168 L 481 172 L 470 172 L 469 171 L 466 171 L 458 167 L 448 156 Z M 574 568 L 575 567 L 576 568 L 575 569 Z M 615 549 L 616 548 L 617 549 L 616 550 Z M 585 518 L 586 517 L 587 518 L 586 519 Z M 585 509 L 586 508 L 587 509 L 586 510 Z M 588 498 L 589 497 L 590 498 L 589 499 Z M 593 490 L 594 489 L 595 490 L 594 491 Z M 602 482 L 603 481 L 604 482 L 603 483 Z M 599 485 L 608 480 L 609 478 L 612 479 L 618 477 L 638 477 L 639 478 L 647 479 L 656 484 L 664 492 L 670 505 L 670 521 L 669 522 L 669 525 L 662 537 L 652 545 L 640 549 L 617 549 L 616 548 L 609 547 L 600 542 L 591 534 L 592 533 L 588 526 L 587 518 L 586 517 L 587 504 L 590 498 L 589 496 L 592 494 L 595 489 Z M 611 478 L 612 477 L 613 478 L 612 479 Z M 616 477 L 617 476 L 618 477 L 617 478 Z M 541 477 L 542 476 L 543 477 L 542 478 Z M 617 385 L 618 386 L 618 425 L 617 426 L 616 425 L 616 386 Z M 603 237 L 604 236 L 605 237 L 604 238 Z M 597 229 L 598 228 L 599 229 L 598 230 Z M 482 190 L 483 189 L 484 190 L 483 191 Z M 440 166 L 441 165 L 442 166 L 441 167 Z M 627 139 L 616 161 L 615 165 L 616 161 Z M 646 138 L 638 146 L 633 153 L 625 170 L 618 195 L 618 209 L 618 195 L 625 170 L 633 153 L 638 146 Z M 774 136 L 772 137 L 770 140 L 770 139 L 774 136 L 777 136 L 781 140 L 783 149 L 785 153 L 786 164 L 787 165 L 787 174 L 791 172 L 788 174 L 787 173 L 786 158 L 781 140 L 779 137 Z M 655 132 L 652 134 Z M 630 130 L 629 134 Z M 568 129 L 572 132 Z M 667 126 L 661 129 Z M 560 125 L 566 128 Z M 721 122 L 718 125 L 714 125 L 718 125 Z M 553 122 L 556 123 Z M 675 121 L 671 124 Z M 548 120 L 551 121 Z M 544 118 L 546 119 Z M 710 117 L 710 121 L 712 124 L 710 121 Z M 575 120 L 575 117 L 574 120 L 571 118 Z M 633 116 L 632 124 Z M 664 115 L 648 123 L 646 125 L 644 124 L 644 121 L 644 124 L 645 125 L 643 126 Z M 724 113 L 723 116 Z M 713 109 L 711 115 Z M 728 107 L 725 111 Z M 541 110 L 541 111 L 544 107 L 549 107 L 554 111 L 556 111 L 569 117 L 561 113 L 554 111 L 549 107 L 544 107 Z M 688 104 L 686 109 L 682 114 L 686 109 Z M 688 99 L 688 100 L 685 96 L 680 96 L 677 99 L 676 103 L 672 109 L 666 114 L 672 109 L 676 103 L 677 99 L 680 96 L 685 96 Z M 725 92 L 718 100 L 714 107 L 718 100 Z M 583 90 L 585 93 L 585 110 L 586 111 L 586 118 L 587 119 L 589 131 L 601 147 L 607 159 L 612 173 L 614 167 L 612 172 L 601 147 L 589 131 L 587 119 L 586 118 L 586 111 L 585 110 L 585 93 Z M 646 88 L 646 113 L 645 114 L 645 119 L 645 114 L 646 113 Z M 644 78 L 645 86 Z M 640 72 L 643 76 L 642 73 Z M 636 72 L 632 75 L 633 84 L 632 75 Z M 345 164 L 345 166 L 341 174 L 341 177 L 340 178 L 341 180 L 339 182 L 340 184 L 338 186 L 338 189 L 339 190 L 337 193 L 337 210 L 338 211 L 339 222 L 344 236 L 352 249 L 357 255 L 368 264 L 378 269 L 380 268 L 382 272 L 380 274 L 380 286 L 382 288 L 381 291 L 383 293 L 382 294 L 383 299 L 386 304 L 387 308 L 390 310 L 389 311 L 394 318 L 402 326 L 412 333 L 413 332 L 414 334 L 418 336 L 419 335 L 420 337 L 423 338 L 424 337 L 425 339 L 427 338 L 428 340 L 431 339 L 432 341 L 436 341 L 437 342 L 443 342 L 444 341 L 447 343 L 452 343 L 455 341 L 456 342 L 462 342 L 463 341 L 467 341 L 468 339 L 469 340 L 474 339 L 475 337 L 477 338 L 479 337 L 480 335 L 481 336 L 485 334 L 487 331 L 486 329 L 487 326 L 484 323 L 481 324 L 478 323 L 473 326 L 463 329 L 443 330 L 442 329 L 436 329 L 426 326 L 412 318 L 404 310 L 399 303 L 396 297 L 393 287 L 393 273 L 394 272 L 399 272 L 403 270 L 405 267 L 404 262 L 400 259 L 397 259 L 396 260 L 388 259 L 387 260 L 385 258 L 382 257 L 381 258 L 380 256 L 375 254 L 372 251 L 371 252 L 370 250 L 362 243 L 363 242 L 360 239 L 359 236 L 356 234 L 357 233 L 355 232 L 356 230 L 352 221 L 351 213 L 349 212 L 350 211 L 350 190 L 355 173 L 361 161 L 366 154 L 378 142 L 382 140 L 384 137 L 385 138 L 394 133 L 401 131 L 418 131 L 420 132 L 421 130 L 422 131 L 424 130 L 425 128 L 424 126 L 425 122 L 423 120 L 417 118 L 418 115 L 417 112 L 419 111 L 421 105 L 427 96 L 440 83 L 448 78 L 450 75 L 451 76 L 463 70 L 472 68 L 473 66 L 474 67 L 478 67 L 479 66 L 501 66 L 502 67 L 509 68 L 514 72 L 519 72 L 522 69 L 525 61 L 537 49 L 544 44 L 562 36 L 574 34 L 575 33 L 584 33 L 585 32 L 606 34 L 615 37 L 625 42 L 630 46 L 631 49 L 634 52 L 637 53 L 652 44 L 659 42 L 663 42 L 664 41 L 684 41 L 698 45 L 708 50 L 715 55 L 726 65 L 725 66 L 731 74 L 735 84 L 732 88 L 731 87 L 727 91 L 729 92 L 729 94 L 731 97 L 736 99 L 729 105 L 734 100 L 738 98 L 740 95 L 741 96 L 742 94 L 743 95 L 744 93 L 746 94 L 749 92 L 757 91 L 758 90 L 776 90 L 777 91 L 782 91 L 794 96 L 796 95 L 797 97 L 798 96 L 800 99 L 802 100 L 803 99 L 804 101 L 809 105 L 810 104 L 811 106 L 822 116 L 821 117 L 828 126 L 832 135 L 834 136 L 833 138 L 836 145 L 837 155 L 839 156 L 838 157 L 838 167 L 839 168 L 837 169 L 836 171 L 836 176 L 839 179 L 853 180 L 866 186 L 867 185 L 868 187 L 879 197 L 882 203 L 885 205 L 884 207 L 886 210 L 888 217 L 888 223 L 889 224 L 888 238 L 883 252 L 876 261 L 876 266 L 887 276 L 892 285 L 894 292 L 894 296 L 895 297 L 895 306 L 894 307 L 893 316 L 888 327 L 880 335 L 876 337 L 874 341 L 874 344 L 877 350 L 878 364 L 877 365 L 876 374 L 872 383 L 873 384 L 870 386 L 868 390 L 859 400 L 858 399 L 855 402 L 845 407 L 840 408 L 838 410 L 835 409 L 832 411 L 831 410 L 821 410 L 820 411 L 817 409 L 814 409 L 813 410 L 811 408 L 806 407 L 796 402 L 791 397 L 793 392 L 793 385 L 790 382 L 787 383 L 785 382 L 782 384 L 781 390 L 777 395 L 768 398 L 767 400 L 768 403 L 767 405 L 771 408 L 775 408 L 779 406 L 782 406 L 784 408 L 786 408 L 787 410 L 791 413 L 792 412 L 793 414 L 797 416 L 798 415 L 799 417 L 801 418 L 803 417 L 804 419 L 807 419 L 812 421 L 817 421 L 818 422 L 840 421 L 841 419 L 842 420 L 847 419 L 863 411 L 865 408 L 866 409 L 870 404 L 871 405 L 875 401 L 874 400 L 879 396 L 884 388 L 885 385 L 884 384 L 886 383 L 887 381 L 889 369 L 890 368 L 890 352 L 888 350 L 889 349 L 888 345 L 889 344 L 890 345 L 889 344 L 899 333 L 903 325 L 902 324 L 904 323 L 905 320 L 904 318 L 906 317 L 905 314 L 907 312 L 907 308 L 906 307 L 907 306 L 907 298 L 906 297 L 907 296 L 907 292 L 905 290 L 906 287 L 904 286 L 905 284 L 904 281 L 902 280 L 903 279 L 899 271 L 895 268 L 896 267 L 891 262 L 897 252 L 901 238 L 901 217 L 900 216 L 900 212 L 898 206 L 896 205 L 897 204 L 895 199 L 889 190 L 885 187 L 885 185 L 874 176 L 873 177 L 871 174 L 865 171 L 863 172 L 862 170 L 860 171 L 859 169 L 852 168 L 851 167 L 851 157 L 849 155 L 850 154 L 850 149 L 849 148 L 848 141 L 846 140 L 847 137 L 843 129 L 843 127 L 841 123 L 838 121 L 839 120 L 838 118 L 835 116 L 836 115 L 831 108 L 819 96 L 800 84 L 798 85 L 797 83 L 795 82 L 793 83 L 792 81 L 790 82 L 789 80 L 786 80 L 785 79 L 782 80 L 781 78 L 776 78 L 775 79 L 774 77 L 761 77 L 759 79 L 758 78 L 754 78 L 753 80 L 752 79 L 747 80 L 742 68 L 740 65 L 738 64 L 739 63 L 733 55 L 717 41 L 716 42 L 714 39 L 701 33 L 700 34 L 699 32 L 697 33 L 696 31 L 693 31 L 688 29 L 667 28 L 666 29 L 659 29 L 658 30 L 651 31 L 650 33 L 648 32 L 640 36 L 639 38 L 638 36 L 637 37 L 634 33 L 629 30 L 612 23 L 604 22 L 603 21 L 600 21 L 599 22 L 596 20 L 580 20 L 577 22 L 576 21 L 572 21 L 570 23 L 567 22 L 566 23 L 559 24 L 558 26 L 556 25 L 553 26 L 552 28 L 551 27 L 546 29 L 545 31 L 544 30 L 543 32 L 542 31 L 537 34 L 536 36 L 535 35 L 533 38 L 532 37 L 528 40 L 517 51 L 513 58 L 512 56 L 504 55 L 503 54 L 482 53 L 480 55 L 479 54 L 475 54 L 474 55 L 470 55 L 469 57 L 466 56 L 465 58 L 463 57 L 457 59 L 456 61 L 455 60 L 448 63 L 447 65 L 446 64 L 436 70 L 433 74 L 432 73 L 422 82 L 412 95 L 410 99 L 411 100 L 409 101 L 410 102 L 408 103 L 405 110 L 406 113 L 404 114 L 404 119 L 403 120 L 402 119 L 398 119 L 388 122 L 369 133 L 357 145 L 358 146 L 354 149 Z M 790 395 L 791 394 L 792 395 L 791 396 Z M 791 392 L 792 391 L 793 392 L 792 393 Z M 791 385 L 792 384 L 793 385 L 792 386 Z M 873 380 L 874 379 L 875 380 L 874 381 Z M 878 336 L 879 335 L 880 336 L 879 337 Z M 882 333 L 883 332 L 884 333 L 883 334 Z M 884 331 L 885 330 L 886 331 L 885 332 Z M 456 330 L 457 329 L 458 330 L 457 331 Z M 441 330 L 442 329 L 443 330 L 442 331 Z M 893 313 L 894 312 L 895 313 L 894 314 Z M 894 307 L 895 306 L 896 307 L 895 308 Z M 894 296 L 895 295 L 896 296 L 895 297 Z M 394 295 L 395 294 L 396 295 L 395 296 Z M 883 272 L 884 271 L 885 272 L 884 273 Z M 882 271 L 883 270 L 884 271 L 883 272 Z M 398 271 L 399 270 L 400 271 L 399 272 Z M 402 269 L 403 268 L 404 269 L 403 270 Z M 877 259 L 878 258 L 879 259 L 878 260 Z M 879 257 L 880 256 L 881 257 L 880 258 Z M 358 256 L 359 255 L 360 256 L 359 257 Z M 357 255 L 358 254 L 359 255 L 358 256 Z M 884 248 L 885 247 L 886 248 L 885 249 Z M 888 232 L 889 231 L 890 232 L 889 233 Z M 888 223 L 889 222 L 890 223 L 889 224 Z M 368 134 L 369 133 L 370 134 L 369 135 Z M 829 108 L 830 107 L 831 108 L 830 109 Z M 421 103 L 422 102 L 423 103 L 422 104 Z M 422 82 L 423 81 L 424 82 L 423 83 Z M 423 81 L 424 80 L 425 81 L 424 82 Z M 424 80 L 425 79 L 426 80 L 425 81 Z M 505 67 L 506 66 L 507 67 L 506 68 Z M 477 66 L 478 65 L 479 66 L 478 67 Z M 487 65 L 488 64 L 491 64 L 492 65 L 491 66 L 488 66 Z M 636 52 L 637 51 L 638 52 L 637 53 Z M 537 48 L 538 47 L 539 48 L 538 49 Z M 702 47 L 703 46 L 704 47 L 703 48 Z M 646 46 L 647 45 L 648 46 L 647 47 Z M 648 45 L 649 44 L 650 45 L 649 46 Z M 695 44 L 696 43 L 697 44 L 696 45 Z M 692 43 L 693 42 L 694 43 L 693 44 Z M 657 42 L 658 41 L 659 42 L 658 43 Z M 555 38 L 556 37 L 557 38 L 556 39 Z M 612 36 L 613 35 L 614 36 L 613 37 Z M 609 35 L 610 34 L 611 35 L 610 36 Z M 601 33 L 602 32 L 603 33 L 602 34 Z M 591 32 L 592 31 L 594 32 L 593 33 Z M 583 32 L 584 31 L 585 32 L 584 33 Z" fill="#ffffff" fill-rule="evenodd"/>
    <path d="M 434 230 L 433 233 L 435 237 L 445 247 L 460 257 L 446 262 L 441 265 L 439 265 L 436 268 L 436 273 L 437 274 L 442 275 L 446 272 L 448 272 L 453 269 L 460 267 L 464 267 L 465 266 L 470 266 L 471 265 L 490 265 L 491 266 L 498 266 L 499 267 L 511 269 L 526 275 L 528 277 L 527 278 L 518 280 L 510 284 L 499 294 L 499 298 L 504 301 L 515 292 L 525 287 L 533 286 L 534 285 L 548 286 L 561 292 L 570 298 L 578 305 L 586 314 L 593 324 L 601 341 L 605 354 L 605 359 L 605 326 L 595 310 L 589 303 L 575 290 L 561 281 L 554 279 L 546 274 L 525 264 L 504 258 L 500 258 L 499 257 L 480 256 L 474 254 L 455 243 L 440 228 L 436 228 Z M 777 137 L 772 138 L 770 141 L 775 156 L 777 176 L 776 177 L 776 185 L 775 186 L 774 193 L 767 209 L 759 220 L 747 232 L 732 239 L 694 262 L 693 259 L 695 255 L 697 243 L 698 242 L 698 237 L 699 236 L 699 209 L 698 208 L 698 205 L 708 191 L 714 180 L 717 171 L 717 165 L 715 163 L 710 163 L 709 164 L 705 177 L 695 192 L 693 191 L 693 189 L 687 177 L 680 166 L 676 164 L 673 165 L 671 168 L 672 173 L 679 182 L 685 194 L 688 204 L 689 217 L 690 218 L 690 228 L 689 229 L 688 244 L 686 248 L 686 251 L 683 260 L 677 273 L 655 298 L 646 312 L 640 324 L 633 343 L 633 346 L 629 359 L 627 377 L 626 378 L 626 386 L 625 387 L 625 399 L 624 400 L 624 471 L 628 471 L 630 473 L 630 476 L 643 477 L 653 481 L 665 492 L 671 505 L 671 521 L 666 533 L 659 541 L 652 546 L 644 549 L 641 549 L 640 550 L 629 550 L 629 554 L 686 554 L 687 553 L 691 553 L 697 551 L 708 545 L 716 537 L 722 526 L 723 518 L 724 517 L 723 504 L 718 492 L 716 489 L 704 478 L 696 474 L 689 473 L 688 472 L 636 472 L 634 470 L 634 410 L 635 409 L 635 403 L 636 402 L 637 394 L 645 376 L 649 370 L 663 356 L 679 347 L 689 344 L 693 344 L 694 343 L 714 343 L 731 348 L 746 357 L 751 357 L 753 354 L 752 350 L 742 343 L 725 336 L 721 336 L 720 335 L 721 333 L 730 327 L 742 315 L 743 313 L 742 308 L 741 307 L 736 307 L 724 320 L 712 329 L 702 334 L 691 334 L 690 335 L 682 336 L 664 344 L 654 351 L 644 361 L 639 368 L 638 367 L 639 359 L 648 330 L 657 313 L 671 294 L 684 281 L 694 273 L 711 263 L 717 261 L 721 261 L 722 260 L 743 260 L 757 264 L 767 269 L 773 273 L 785 285 L 788 291 L 791 301 L 792 317 L 791 318 L 791 323 L 789 329 L 790 331 L 793 333 L 795 333 L 798 331 L 801 321 L 801 302 L 799 297 L 800 295 L 816 301 L 832 303 L 839 307 L 843 311 L 847 311 L 849 309 L 849 304 L 844 299 L 833 294 L 827 294 L 826 293 L 821 293 L 817 291 L 814 291 L 794 281 L 783 269 L 772 261 L 762 256 L 753 253 L 745 252 L 744 251 L 736 251 L 735 250 L 736 248 L 758 237 L 775 232 L 787 231 L 788 230 L 804 230 L 805 231 L 814 232 L 820 235 L 822 235 L 830 240 L 842 252 L 847 252 L 849 250 L 849 245 L 839 235 L 829 228 L 842 222 L 852 214 L 852 209 L 848 206 L 845 207 L 836 215 L 830 218 L 817 222 L 809 222 L 808 221 L 784 221 L 783 222 L 778 222 L 772 224 L 769 223 L 774 216 L 781 202 L 783 194 L 787 188 L 791 184 L 808 174 L 817 164 L 817 160 L 812 157 L 799 169 L 787 175 L 786 174 L 786 165 L 785 164 L 784 153 L 782 149 L 780 140 Z M 728 92 L 726 92 L 722 96 L 714 108 L 714 110 L 711 116 L 711 121 L 713 124 L 718 124 L 721 121 L 721 118 L 725 109 L 728 105 L 735 99 L 731 98 L 729 96 Z M 639 72 L 637 72 L 633 75 L 633 80 L 635 86 L 636 105 L 635 106 L 635 114 L 634 115 L 634 120 L 633 121 L 631 132 L 629 135 L 628 140 L 617 161 L 614 171 L 612 174 L 610 172 L 608 164 L 600 147 L 588 131 L 586 119 L 585 118 L 585 111 L 584 110 L 584 93 L 582 90 L 576 90 L 574 92 L 574 108 L 575 109 L 575 116 L 576 117 L 576 120 L 575 121 L 561 114 L 554 112 L 549 108 L 544 108 L 541 112 L 543 117 L 554 121 L 559 124 L 561 124 L 574 132 L 586 144 L 597 162 L 602 176 L 605 193 L 606 194 L 606 240 L 613 253 L 617 267 L 617 195 L 618 194 L 620 182 L 626 165 L 632 153 L 637 146 L 650 134 L 676 120 L 681 115 L 688 103 L 688 101 L 685 97 L 680 97 L 678 99 L 677 103 L 673 109 L 669 113 L 643 127 L 642 126 L 643 125 L 644 114 L 645 113 L 645 87 L 644 86 L 643 77 Z" fill="#1e69ff" fill-rule="evenodd"/>
  </g>
</svg>
